<svg xmlns="http://www.w3.org/2000/svg">
    <symbol id="support" viewBox="0 0 76 92">
        <path d="M67.167 54.333V71h-8.334V54.333h8.334Zm-50 0V71H13a4.179 4.179 0 0 1-4.167-4.167v-12.5h8.334ZM38 .167C17.292.167.5 16.958.5 37.667v29.166c0 6.917 5.583 12.5 12.5 12.5h12.5V46H8.833v-8.333C8.833 21.542 21.875 8.5 38 8.5s29.167 13.042 29.167 29.167V46H50.5v33.333h16.667V83.5H38v8.333h25c6.917 0 12.5-5.583 12.5-12.5V37.667c0-20.709-16.792-37.5-37.5-37.5Z" fill="#3077C6"/>
    </symbol>
    <symbol id="communication" viewBox="0 0 84 84">
        <path d="M54.5 8.667v29.166H13.542l-4.875 4.875V8.667H54.5ZM58.667.333H4.5A4.179 4.179 0 0 0 .333 4.5v58.333L17 46.167h41.667A4.179 4.179 0 0 0 62.833 42V4.5A4.179 4.179 0 0 0 58.667.333ZM79.5 17h-8.333v37.5H17v8.333A4.179 4.179 0 0 0 21.167 67H67l16.667 16.667v-62.5A4.179 4.179 0 0 0 79.5 17Z" fill="#3077C6"/>
    </symbol>
    <symbol id="booking" viewBox="0 0 100 68">
        <path d="M16.667 9h75V.667h-75C12.083.667 8.333 4.417 8.333 9v45.833H0v12.5h58.333v-12.5H16.667V9Zm79.166 8.333h-25a4.179 4.179 0 0 0-4.166 4.167v41.667a4.179 4.179 0 0 0 4.166 4.166h25A4.179 4.179 0 0 0 100 63.167V21.5a4.179 4.179 0 0 0-4.167-4.167Zm-4.166 37.5H75V25.667h16.667v29.166Z" fill="#3077C6"/>
    </symbol>
    <symbol id="reviews" viewBox="0 0 92 84">
        <path d="M83.5 29.333H57.208l3.959-19.041.125-1.334a6.272 6.272 0 0 0-1.834-4.416L55.042.167 27.625 27.625a8.147 8.147 0 0 0-2.458 5.875v41.667c0 4.583 3.75 8.333 8.333 8.333H71a8.277 8.277 0 0 0 7.667-5.083L91.25 49.042A8.232 8.232 0 0 0 91.833 46v-8.333c0-4.584-3.75-8.334-8.333-8.334ZM83.5 46 71 75.167H33.5V33.5l18.083-18.083-4.625 22.25H83.5V46ZM.167 33.5h16.666v50H.167v-50Z" fill="#3077C6"/>
    </symbol>
    <symbol id="logo" viewBox="0 0 205 40">
        <path d="M.84 11.024c-.206-.33-.397-.78-.574-1.35A6.033 6.033 0 0 1 0 7.874c0-1.17.25-2.01.752-2.52.532-.51 1.21-.765 2.036-.765h19.297c.207.33.398.78.575 1.35.177.57.266 1.17.266 1.8 0 1.17-.266 2.01-.797 2.52-.501.51-1.165.765-1.991.765h-4.913V31.81c-.325.09-.84.18-1.55.27-.678.09-1.356.135-2.035.135s-1.284-.06-1.815-.18c-.501-.09-.929-.27-1.283-.54-.354-.27-.62-.645-.797-1.125-.177-.48-.265-1.11-.265-1.89V11.024H.84ZM31.85 31.946c-.295.09-.768.18-1.417.27-.62.09-1.268.135-1.947.135-.65 0-1.24-.045-1.77-.135-.502-.09-.93-.27-1.284-.54a2.792 2.792 0 0 1-.84-1.08c-.178-.48-.266-1.095-.266-1.845V15.253c0-.69.118-1.275.354-1.755a4.35 4.35 0 0 1 1.106-1.35c.472-.39 1.048-.734 1.726-1.034a16.838 16.838 0 0 1 4.736-1.395c.856-.15 1.711-.225 2.567-.225 1.416 0 2.538.285 3.364.855.826.54 1.239 1.44 1.239 2.7 0 .42-.06.84-.177 1.26-.118.39-.266.75-.443 1.08a20.679 20.679 0 0 0-3.806.359c-.62.12-1.21.255-1.77.405a6.74 6.74 0 0 0-1.372.45v15.343ZM42.345 4.05c0-1.14.369-2.1 1.106-2.88.767-.78 1.77-1.17 3.01-1.17 1.24 0 2.228.39 2.965 1.17.767.78 1.151 1.74 1.151 2.88s-.384 2.1-1.15 2.88c-.738.779-1.727 1.169-2.966 1.169-1.24 0-2.242-.39-3.01-1.17-.737-.78-1.106-1.74-1.106-2.88Zm7.878 27.896c-.325.06-.812.135-1.46.225-.62.12-1.255.18-1.904.18s-1.239-.045-1.77-.135c-.502-.09-.93-.27-1.284-.54a2.79 2.79 0 0 1-.84-1.08c-.178-.48-.266-1.095-.266-1.845V10.44c.325-.06.797-.135 1.416-.225.65-.12 1.298-.18 1.948-.18.649 0 1.224.045 1.726.135.53.09.973.27 1.327.54.355.27.62.645.797 1.125.207.45.31 1.05.31 1.8v18.312ZM64.882 9.449c1.77 0 3.408.24 4.913.72 1.535.45 2.848 1.155 3.94 2.114 1.091.96 1.947 2.175 2.566 3.645.62 1.44.93 3.165.93 5.174 0 1.92-.266 3.6-.797 5.04s-1.283 2.654-2.257 3.644c-.974.96-2.154 1.68-3.54 2.16-1.358.48-2.878.72-4.56.72-1.268 0-2.448-.195-3.54-.585v7.47c-.295.089-.767.179-1.416.269-.65.12-1.314.18-1.992.18-.65 0-1.24-.045-1.77-.135-.502-.09-.93-.27-1.284-.54s-.62-.645-.797-1.125c-.177-.45-.265-1.05-.265-1.8V14.803c0-.81.162-1.47.487-1.98.354-.51.826-.975 1.416-1.394.915-.6 2.05-1.08 3.408-1.44 1.357-.36 2.877-.54 4.558-.54Zm.09 17.188c3.038 0 4.558-1.845 4.558-5.535 0-1.92-.384-3.344-1.151-4.274-.738-.93-1.815-1.395-3.23-1.395-.561 0-1.063.075-1.506.225a5.15 5.15 0 0 0-1.15.45v9.899c.354.18.737.33 1.15.45.413.12.856.18 1.328.18ZM105.466 31.811c-.325.09-.841.18-1.549.27-.679.09-1.357.135-2.036.135a8.28 8.28 0 0 1-1.815-.18 2.936 2.936 0 0 1-1.283-.54c-.354-.27-.62-.645-.797-1.125-.177-.48-.265-1.11-.265-1.89v-7.019h-8.498v10.349c-.325.09-.84.18-1.549.27-.679.09-1.357.135-2.036.135-.678 0-1.283-.06-1.815-.18-.501-.09-.929-.27-1.283-.54-.354-.27-.62-.645-.797-1.125-.177-.48-.265-1.11-.265-1.89V4.724c.324-.06.84-.135 1.549-.225.708-.12 1.387-.18 2.036-.18.678 0 1.269.06 1.77.18.531.09.974.27 1.328.54.354.27.62.645.796 1.125.178.48.266 1.11.266 1.89v7.2h8.498V4.723c.324-.06.84-.135 1.549-.225.708-.12 1.387-.18 2.036-.18.678 0 1.268.06 1.77.18.531.09.974.27 1.328.54.354.27.619.645.796 1.125.177.48.266 1.11.266 1.89v23.757ZM132.901 21.057c0 1.86-.28 3.525-.841 4.995-.561 1.44-1.357 2.654-2.39 3.644-1.003.99-2.213 1.74-3.629 2.25-1.417.51-2.995.765-4.736.765-1.741 0-3.319-.27-4.736-.81-1.416-.54-2.64-1.305-3.673-2.295-1.003-1.02-1.785-2.25-2.346-3.69-.56-1.44-.841-3.059-.841-4.859 0-1.77.281-3.374.841-4.814.561-1.44 1.343-2.655 2.346-3.645a10.468 10.468 0 0 1 3.673-2.34c1.417-.54 2.995-.81 4.736-.81 1.741 0 3.319.286 4.736.856 1.416.54 2.626 1.32 3.629 2.34 1.033.99 1.829 2.204 2.39 3.644.561 1.44.841 3.03.841 4.77Zm-15.491 0c0 1.83.34 3.24 1.018 4.23.708.96 1.682 1.44 2.921 1.44 1.24 0 2.184-.495 2.833-1.485.679-.99 1.018-2.385 1.018-4.185 0-1.8-.339-3.18-1.018-4.14-.679-.989-1.638-1.484-2.877-1.484-1.239 0-2.198.495-2.877 1.485-.678.96-1.018 2.34-1.018 4.14ZM136.572 10.439c.295-.09.752-.18 1.372-.27.649-.09 1.313-.135 1.991-.135.649 0 1.225.045 1.726.135.531.09.974.27 1.328.54.354.27.62.645.797 1.125.206.45.31 1.05.31 1.8v9.673c0 1.23.295 2.115.885 2.655.59.51 1.445.765 2.567.765.678 0 1.224-.06 1.637-.18.443-.12.782-.24 1.018-.36V10.439c.295-.09.753-.18 1.372-.27.649-.09 1.313-.135 1.992-.135.649 0 1.224.045 1.726.135.531.09.974.27 1.328.54.354.27.619.645.796 1.125.207.45.31 1.05.31 1.8v13.678c0 1.5-.619 2.624-1.859 3.374-1.032.66-2.272 1.155-3.717 1.485-1.417.36-2.966.54-4.648.54-1.593 0-3.068-.18-4.425-.54-1.328-.36-2.479-.915-3.453-1.665-.973-.75-1.726-1.71-2.257-2.88-.531-1.2-.796-2.64-.796-4.319V10.44ZM180.478 25.467c0 2.28-.841 4.064-2.523 5.354-1.682 1.29-4.161 1.935-7.436 1.935-1.239 0-2.39-.09-3.452-.27-1.062-.18-1.977-.45-2.744-.81-.737-.39-1.328-.87-1.77-1.44-.413-.57-.62-1.245-.62-2.024 0-.72.148-1.32.443-1.8.295-.51.649-.93 1.062-1.26.856.48 1.829.915 2.921 1.305 1.121.36 2.405.54 3.851.54.914 0 1.608-.135 2.08-.405.501-.27.752-.63.752-1.08 0-.42-.177-.75-.531-.99-.354-.24-.944-.435-1.77-.585l-1.328-.27c-2.567-.51-4.485-1.305-5.754-2.385-1.239-1.11-1.859-2.684-1.859-4.724 0-1.11.236-2.115.709-3.015a6.286 6.286 0 0 1 1.991-2.25c.856-.6 1.874-1.064 3.054-1.394 1.21-.33 2.538-.495 3.983-.495 1.092 0 2.11.09 3.054.27.974.15 1.815.39 2.523.72.708.33 1.269.765 1.682 1.304.413.51.619 1.125.619 1.845 0 .69-.132 1.29-.398 1.8-.236.48-.546.885-.929 1.215-.236-.15-.591-.3-1.063-.45-.472-.18-.988-.33-1.549-.45-.56-.15-1.136-.27-1.726-.36a9.82 9.82 0 0 0-1.549-.135c-.974 0-1.726.12-2.257.36-.531.21-.797.555-.797 1.035 0 .33.148.6.443.81.295.21.856.405 1.682.585l1.372.315c2.832.66 4.839 1.575 6.019 2.744 1.21 1.14 1.815 2.625 1.815 4.455ZM195.706 32.71c-1.741 0-3.364-.24-4.869-.719a11.498 11.498 0 0 1-3.895-2.25c-1.091-.99-1.962-2.234-2.611-3.734-.619-1.5-.929-3.255-.929-5.265 0-1.98.31-3.674.929-5.084.649-1.44 1.49-2.61 2.523-3.51a9.525 9.525 0 0 1 3.541-2.024 12.601 12.601 0 0 1 4.071-.675c1.564 0 2.981.24 4.249.72 1.299.48 2.405 1.14 3.32 1.98a8.426 8.426 0 0 1 2.168 3.014c.531 1.17.797 2.445.797 3.825 0 1.02-.28 1.8-.841 2.34-.561.54-1.342.884-2.346 1.034l-10.932 1.665c.325.99.989 1.74 1.992 2.25 1.003.48 2.154.72 3.452.72 1.21 0 2.346-.15 3.408-.45 1.092-.33 1.977-.705 2.656-1.125.472.3.87.72 1.195 1.26.324.54.487 1.11.487 1.71 0 1.35-.62 2.354-1.859 3.014-.944.51-2.007.855-3.187 1.035-1.18.18-2.287.27-3.319.27Zm-1.24-17.682c-.708 0-1.327.12-1.858.36-.502.24-.915.555-1.24.945-.324.36-.575.78-.752 1.26-.148.45-.236.915-.266 1.395l7.569-1.26c-.089-.6-.413-1.2-.974-1.8-.561-.6-1.387-.9-2.479-.9Z" fill="#3077C6"/>
    </symbol>
    <symbol id="night" viewBox="0 0 30 30">
        <path d="M25.61 10.61V4.39h-6.22L15 0l-4.39 4.39H4.39v6.22L0 15l4.39 4.39v6.22h6.22L15 30l4.39-4.39h6.22v-6.22L30 15l-4.39-4.39ZM15 22.958a7.924 7.924 0 0 1-3.316-.73c2.732-1.26 4.642-4.018 4.642-7.228s-1.91-5.968-4.642-7.228A7.924 7.924 0 0 1 15 7.042c4.39 0 7.958 3.568 7.958 7.958 0 4.39-3.568 7.958-7.958 7.958Z" fill="#fff"/>
    </symbol>
    <symbol id="account" viewBox="0 0 40 40">
        <path d="M20 0C8.96 0 0 8.96 0 20s8.96 20 20 20 20-8.96 20-20S31.04 0 20 0Zm0 6c3.32 0 6 2.68 6 6s-2.68 6-6 6-6-2.68-6-6 2.68-6 6-6Zm0 28.4c-5 0-9.42-2.56-12-6.44.06-3.98 8-6.16 12-6.16 3.98 0 11.94 2.18 12 6.16-2.58 3.88-7 6.44-12 6.44Z" fill="#fff"/>
    </symbol>
<!--    <symbol id="google_play" viewBox="0 0 135 40" fill="none">-->
<!--        <path d="M130 39.9999H5C2.25 39.9999 0 37.75 0 35V4.99999C0 2.25 2.25 0 5 0H130C132.75 0 135 2.25 135 4.99999V35C135 37.75 132.75 39.9999 130 39.9999Z" fill="black"/>-->
<!--        <path d="M130 0.799999C132.32 0.799999 134.2 2.68 134.2 4.99999V35C134.2 37.32 132.32 39.2 130 39.2H5C2.68 39.2 0.8 37.32 0.8 35V4.99999C0.8 2.68 2.68 0.799999 5 0.799999H130ZM130 0H5C2.25 0 0 2.25 0 4.99999V35C0 37.75 2.25 39.9999 5 39.9999H130C132.75 39.9999 135 37.75 135 35V4.99999C135 2.25 132.75 0 130 0Z" fill="#A6A6A6"/>-->
<!--        <path d="M47.42 10.2399C47.42 11.0799 47.17 11.7499 46.67 12.2399C46.11 12.8299 45.37 13.1299 44.47 13.1299C43.6 13.1299 42.87 12.8299 42.26 12.2299C41.65 11.6299 41.35 10.8799 41.35 9.99991C41.35 9.1099 41.65 8.36989 42.26 7.76988C42.87 7.16988 43.6 6.86987 44.47 6.86987C44.9 6.86987 45.31 6.94987 45.7 7.11988C46.09 7.28988 46.4 7.50988 46.64 7.78988L46.11 8.31989C45.71 7.84988 45.17 7.60988 44.47 7.60988C43.84 7.60988 43.29 7.82988 42.83 8.27989C42.37 8.7199 42.14 9.2999 42.14 10.0099C42.14 10.7199 42.37 11.2999 42.83 11.7399C43.29 12.1799 43.84 12.4099 44.47 12.4099C45.14 12.4099 45.7 12.1899 46.15 11.7399C46.44 11.4499 46.61 11.0399 46.65 10.5199H44.47V9.79991H47.38C47.4 9.94991 47.42 10.0999 47.42 10.2399Z" fill="white" stroke="white" stroke-width="0.2" stroke-miterlimit="10"/>-->
<!--        <path d="M52.03 7.73988H49.3V9.63988H51.76V10.3599H49.3V12.2599H52.03V12.9999H48.53V6.99988H52.03V7.73988Z" fill="white" stroke="white" stroke-width="0.2" stroke-miterlimit="10"/>-->
<!--        <path d="M55.28 12.9999H54.51V7.73988H52.83V6.99988H56.95V7.73988H55.27V12.9999H55.28Z" fill="white" stroke="white" stroke-width="0.2" stroke-miterlimit="10"/>-->
<!--        <path d="M59.94 12.9999V6.99988H60.71V12.9999H59.94Z" fill="white" stroke="white" stroke-width="0.2" stroke-miterlimit="10"/>-->
<!--        <path d="M64.13 12.9999H63.36V7.73988H61.68V6.99988H65.8V7.73988H64.12V12.9999H64.13Z" fill="white" stroke="white" stroke-width="0.2" stroke-miterlimit="10"/>-->
<!--        <path d="M73.61 12.2199C73.02 12.8299 72.29 13.1299 71.41 13.1299C70.53 13.1299 69.8 12.8299 69.21 12.2199C68.62 11.6099 68.33 10.8699 68.33 9.99991C68.33 9.1299 68.62 8.37989 69.21 7.77988C69.8 7.16988 70.53 6.86987 71.41 6.86987C72.28 6.86987 73.01 7.16988 73.61 7.77988C74.2 8.38989 74.5 9.1299 74.5 9.99991C74.49 10.8799 74.2 11.6199 73.61 12.2199ZM69.78 11.7199C70.22 12.1699 70.77 12.3899 71.41 12.3899C72.05 12.3899 72.6 12.1699 73.04 11.7199C73.48 11.2699 73.71 10.6999 73.71 9.99991C73.71 9.2999 73.49 8.7299 73.04 8.27989C72.6 7.82988 72.05 7.60988 71.41 7.60988C70.77 7.60988 70.22 7.82988 69.78 8.27989C69.34 8.7299 69.11 9.2999 69.11 9.99991C69.11 10.6999 69.34 11.2699 69.78 11.7199Z" fill="white" stroke="white" stroke-width="0.2" stroke-miterlimit="10"/>-->
<!--        <path d="M75.58 12.9999V6.99988H76.52L79.44 11.6699H79.47L79.44 10.5099V6.99988H80.21V12.9999H79.41L76.36 8.10988H76.33L76.36 9.26988V12.9999H75.58Z" fill="white" stroke="white" stroke-width="0.2" stroke-miterlimit="10"/>-->
<!--        <path d="M68.14 21.75C65.79 21.75 63.87 23.54 63.87 26C63.87 28.45 65.79 30.25 68.14 30.25C70.49 30.25 72.41 28.45 72.41 26C72.41 23.54 70.49 21.75 68.14 21.75ZM68.14 28.58C66.85 28.58 65.74 27.52 65.74 26C65.74 24.47 66.85 23.42 68.14 23.42C69.43 23.42 70.54 24.47 70.54 26C70.54 27.52 69.42 28.58 68.14 28.58ZM58.82 21.75C56.47 21.75 54.55 23.54 54.55 26C54.55 28.45 56.47 30.25 58.82 30.25C61.17 30.25 63.09 28.45 63.09 26C63.09 23.54 61.17 21.75 58.82 21.75ZM58.82 28.58C57.53 28.58 56.42 27.52 56.42 26C56.42 24.47 57.53 23.42 58.82 23.42C60.11 23.42 61.22 24.47 61.22 26C61.22 27.52 60.11 28.58 58.82 28.58ZM47.74 23.06V24.86H52.06C51.93 25.87 51.59 26.62 51.08 27.13C50.45 27.76 49.47 28.45 47.75 28.45C45.09 28.45 43.01 26.31 43.01 23.65C43.01 20.99 45.09 18.8499 47.75 18.8499C49.18 18.8499 50.23 19.4099 51 20.1399L52.27 18.8699C51.19 17.8399 49.76 17.0499 47.74 17.0499C44.1 17.0499 41.04 20.0099 41.04 23.66C41.04 27.3 44.1 30.27 47.74 30.27C49.71 30.27 51.19 29.63 52.35 28.42C53.54 27.23 53.91 25.55 53.91 24.2C53.91 23.78 53.88 23.39 53.81 23.07H47.74V23.06ZM93.05 24.46C92.7 23.51 91.62 21.75 89.41 21.75C87.22 21.75 85.4 23.47 85.4 26C85.4 28.38 87.2 30.25 89.62 30.25C91.57 30.25 92.7 29.06 93.16 28.37L91.71 27.4C91.23 28.11 90.57 28.58 89.62 28.58C88.67 28.58 87.99 28.14 87.56 27.29L93.25 24.94L93.05 24.46ZM87.25 25.88C87.2 24.24 88.52 23.4 89.47 23.4C90.21 23.4 90.84 23.77 91.05 24.3L87.25 25.88ZM82.63 30H84.5V17.4999H82.63V30ZM79.57 22.7H79.5C79.08 22.2 78.28 21.75 77.26 21.75C75.13 21.75 73.18 23.62 73.18 26.02C73.18 28.4 75.13 30.26 77.26 30.26C78.27 30.26 79.08 29.81 79.5 29.29H79.56V29.9C79.56 31.53 78.69 32.4 77.29 32.4C76.15 32.4 75.44 31.58 75.15 30.89L73.52 31.57C73.99 32.7 75.23 34.08 77.29 34.08C79.48 34.08 81.33 32.79 81.33 29.65V22.01H79.56V22.7H79.57ZM77.42 28.58C76.13 28.58 75.05 27.5 75.05 26.02C75.05 24.52 76.13 23.43 77.42 23.43C78.69 23.43 79.69 24.53 79.69 26.02C79.7 27.5 78.7 28.58 77.42 28.58ZM101.81 17.4999H97.34V30H99.21V25.26H101.82C103.89 25.26 105.92 23.76 105.92 21.38C105.92 18.9999 103.87 17.4999 101.81 17.4999ZM101.85 23.52H99.2V19.2299H101.85C103.25 19.2299 104.04 20.3899 104.04 21.37C104.04 22.35 103.25 23.52 101.85 23.52ZM113.39 21.73C112.04 21.73 110.64 22.33 110.06 23.64L111.72 24.33C112.07 23.64 112.73 23.41 113.42 23.41C114.38 23.41 115.37 23.99 115.38 25.02V25.15C115.04 24.96 114.32 24.67 113.43 24.67C111.64 24.67 109.83 25.65 109.83 27.48C109.83 29.15 111.29 30.23 112.93 30.23C114.18 30.23 114.88 29.67 115.31 29.01H115.37V29.98H117.17V25.19C117.18 22.97 115.52 21.73 113.39 21.73ZM113.16 28.58C112.55 28.58 111.7 28.27 111.7 27.52C111.7 26.56 112.76 26.19 113.68 26.19C114.5 26.19 114.89 26.37 115.38 26.61C115.24 27.76 114.24 28.58 113.16 28.58ZM123.74 22L121.6 27.42H121.54L119.32 22H117.31L120.64 29.58L118.74 33.79H120.69L125.82 22H123.74ZM106.94 30H108.81V17.4999H106.94V30Z" fill="white"/>-->
<!--        <path d="M10.44 7.53997C10.15 7.84997 9.97998 8.32997 9.97998 8.93997V31.0599C9.97998 31.6799 10.15 32.1599 10.44 32.4599L10.51 32.5299L22.9 20.1499V19.9999V19.8499L10.51 7.46997L10.44 7.53997Z" fill="url(#paint0_linear_1_42)"/>-->
<!--        <path d="M27.03 24.2799L22.9 20.1499V19.9999V19.8499L27.03 15.72L27.12 15.77L32.01 18.55C33.41 19.3399 33.41 20.6399 32.01 21.4399L27.12 24.2199L27.03 24.2799Z" fill="url(#paint1_linear_1_42)"/>-->
<!--        <path d="M27.12 24.22L22.9 20L10.44 32.46C10.9 32.95 11.66 33.01 12.52 32.52L27.12 24.22Z" fill="url(#paint2_linear_1_42)"/>-->
<!--        <path d="M27.12 15.78L12.51 7.47999C11.65 6.98999 10.89 7.04999 10.43 7.53999L22.9 20L27.12 15.78Z" fill="url(#paint3_linear_1_42)"/>-->
<!--        <path opacity="0.2" d="M27.03 24.13L12.51 32.38C11.7 32.84 10.97 32.81 10.51 32.39L10.44 32.46L10.51 32.53C10.98 32.95 11.7 32.98 12.51 32.52L27.12 24.22L27.03 24.13Z" fill="black"/>-->
<!--        <path opacity="0.12" d="M10.44 32.3201C10.15 32.0101 9.97998 31.5302 9.97998 30.9202V31.0702C9.97998 31.6901 10.15 32.1701 10.44 32.4701L10.51 32.4001L10.44 32.3201Z" fill="black"/>-->
<!--        <path opacity="0.12" d="M32.01 21.3L27.02 24.1301L27.11 24.2201L32 21.44C32.7 21.04 33.05 20.52 33.05 20C33 20.47 32.65 20.94 32.01 21.3Z" fill="black"/>-->
<!--        <path opacity="0.25" d="M12.51 7.61994L32.01 18.7C32.64 19.06 33 19.52 33.06 20C33.06 19.48 32.71 18.95 32.01 18.56L12.51 7.47994C11.11 6.68994 9.96997 7.34994 9.96997 8.94994V9.09994C9.96997 7.48994 11.12 6.82994 12.51 7.61994Z" fill="white"/>-->
<!--        <defs>-->
<!--        <linearGradient id="paint0_linear_1_42" x1="21.7997" y1="8.70967" x2="5.01737" y2="25.4921" gradientUnits="userSpaceOnUse">-->
<!--            <stop stop-color="#00A0FF"/>-->
<!--            <stop offset="0.00657445" stop-color="#00A1FF"/>-->
<!--            <stop offset="0.2601" stop-color="#00BEFF"/>-->
<!--            <stop offset="0.5122" stop-color="#00D2FF"/>-->
<!--            <stop offset="0.7604" stop-color="#00DFFF"/>-->
<!--            <stop offset="1" stop-color="#00E3FF"/>-->
<!--        </linearGradient>-->
<!--        <linearGradient id="paint1_linear_1_42" x1="33.8344" y1="20.0013" x2="9.63756" y2="20.0013" gradientUnits="userSpaceOnUse">-->
<!--            <stop stop-color="#FFE000"/>-->
<!--            <stop offset="0.4087" stop-color="#FFBD00"/>-->
<!--            <stop offset="0.7754" stop-color="#FFA500"/>-->
<!--            <stop offset="1" stop-color="#FF9C00"/>-->
<!--        </linearGradient>-->
<!--        <linearGradient id="paint2_linear_1_42" x1="24.827" y1="22.2961" x2="2.06875" y2="45.0544" gradientUnits="userSpaceOnUse">-->
<!--            <stop stop-color="#FF3A44"/>-->
<!--            <stop offset="1" stop-color="#C31162"/>-->
<!--        </linearGradient>-->
<!--        <linearGradient id="paint3_linear_1_42" x1="7.29727" y1="0.176203" x2="17.4598" y2="10.3387" gradientUnits="userSpaceOnUse">-->
<!--            <stop stop-color="#32A071"/>-->
<!--            <stop offset="0.0685" stop-color="#2DA771"/>-->
<!--            <stop offset="0.4762" stop-color="#15CF74"/>-->
<!--            <stop offset="0.8009" stop-color="#06E775"/>-->
<!--            <stop offset="1" stop-color="#00F076"/>-->
<!--        </linearGradient>-->
<!--        </defs>-->
<!--    </symbol>-->
    <symbol id="google_play" viewBox="0 0 135 40" fill="none">
            <path d="M130 39.9999H5C2.25 39.9999 0 37.75 0 35V4.99999C0 2.25 2.25 0 5 0H130C132.75 0 135 2.25 135 4.99999V35C135 37.75 132.75 39.9999 130 39.9999Z" fill="black"/>
            <path d="M130 0.799999C132.32 0.799999 134.2 2.68 134.2 4.99999V35C134.2 37.32 132.32 39.2 130 39.2H5C2.68 39.2 0.8 37.32 0.8 35V4.99999C0.8 2.68 2.68 0.799999 5 0.799999H130ZM130 0H5C2.25 0 0 2.25 0 4.99999V35C0 37.75 2.25 39.9999 5 39.9999H130C132.75 39.9999 135 37.75 135 35V4.99999C135 2.25 132.75 0 130 0Z" fill="#A6A6A6"/>
            <path d="M47.42 10.24C47.42 11.08 47.17 11.75 46.67 12.24C46.11 12.83 45.37 13.13 44.47 13.13C43.6 13.13 42.87 12.83 42.26 12.23C41.65 11.63 41.35 10.88 41.35 9.99996C41.35 9.10995 41.65 8.36994 42.26 7.76993C42.87 7.16992 43.6 6.86992 44.47 6.86992C44.9 6.86992 45.31 6.94992 45.7 7.11992C46.09 7.28992 46.4 7.50993 46.64 7.78993L46.11 8.31994C45.71 7.84993 45.17 7.60993 44.47 7.60993C43.84 7.60993 43.29 7.82993 42.83 8.27994C42.37 8.71994 42.14 9.29995 42.14 10.01C42.14 10.72 42.37 11.3 42.83 11.74C43.29 12.18 43.84 12.41 44.47 12.41C45.14 12.41 45.7 12.19 46.15 11.74C46.44 11.45 46.61 11.04 46.65 10.52H44.47V9.79995H47.38C47.4 9.94996 47.42 10.1 47.42 10.24Z" fill="white" stroke="white" stroke-width="0.2" stroke-miterlimit="10"/>
            <path d="M52.03 7.73993H49.3V9.63993H51.76V10.3599H49.3V12.2599H52.03V12.9999H48.53V6.99992H52.03V7.73993Z" fill="white" stroke="white" stroke-width="0.2" stroke-miterlimit="10"/>
            <path d="M55.28 12.9999H54.51V7.73993H52.83V6.99992H56.95V7.73993H55.27V12.9999H55.28Z" fill="white" stroke="white" stroke-width="0.2" stroke-miterlimit="10"/>
            <path d="M59.94 12.9999V6.99992H60.71V12.9999H59.94Z" fill="white" stroke="white" stroke-width="0.2" stroke-miterlimit="10"/>
            <path d="M64.13 12.9999H63.36V7.73993H61.68V6.99992H65.8V7.73993H64.12V12.9999H64.13Z" fill="white" stroke="white" stroke-width="0.2" stroke-miterlimit="10"/>
            <path d="M73.61 12.22C73.02 12.83 72.29 13.13 71.41 13.13C70.53 13.13 69.8 12.83 69.21 12.22C68.62 11.61 68.33 10.87 68.33 9.99996C68.33 9.12995 68.62 8.37994 69.21 7.77993C69.8 7.16992 70.53 6.86992 71.41 6.86992C72.28 6.86992 73.01 7.16992 73.61 7.77993C74.2 8.38994 74.5 9.12995 74.5 9.99996C74.49 10.88 74.2 11.62 73.61 12.22ZM69.78 11.72C70.22 12.17 70.77 12.39 71.41 12.39C72.05 12.39 72.6 12.17 73.04 11.72C73.48 11.27 73.71 10.7 73.71 9.99996C73.71 9.29995 73.49 8.72994 73.04 8.27994C72.6 7.82993 72.05 7.60993 71.41 7.60993C70.77 7.60993 70.22 7.82993 69.78 8.27994C69.34 8.72994 69.11 9.29995 69.11 9.99996C69.11 10.7 69.34 11.27 69.78 11.72Z" fill="white" stroke="white" stroke-width="0.2" stroke-miterlimit="10"/>
            <path d="M75.58 12.9999V6.99992H76.52L79.44 11.6699H79.47L79.44 10.5099V6.99992H80.21V12.9999H79.41L76.36 8.10993H76.33L76.36 9.26993V12.9999H75.58Z" fill="white" stroke="white" stroke-width="0.2" stroke-miterlimit="10"/>
            <path d="M68.14 21.75C65.79 21.75 63.87 23.54 63.87 26C63.87 28.4501 65.79 30.2501 68.14 30.2501C70.49 30.2501 72.41 28.4501 72.41 26C72.41 23.54 70.49 21.75 68.14 21.75ZM68.14 28.5801C66.85 28.5801 65.74 27.5201 65.74 26C65.74 24.47 66.85 23.42 68.14 23.42C69.43 23.42 70.54 24.47 70.54 26C70.54 27.5201 69.42 28.5801 68.14 28.5801ZM58.82 21.75C56.47 21.75 54.55 23.54 54.55 26C54.55 28.4501 56.47 30.2501 58.82 30.2501C61.17 30.2501 63.09 28.4501 63.09 26C63.09 23.54 61.17 21.75 58.82 21.75ZM58.82 28.5801C57.53 28.5801 56.42 27.5201 56.42 26C56.42 24.47 57.53 23.42 58.82 23.42C60.11 23.42 61.22 24.47 61.22 26C61.22 27.5201 60.11 28.5801 58.82 28.5801ZM47.74 23.06V24.86H52.06C51.93 25.87 51.59 26.62 51.08 27.13C50.45 27.7601 49.47 28.4501 47.75 28.4501C45.09 28.4501 43.01 26.31 43.01 23.65C43.01 20.99 45.09 18.85 47.75 18.85C49.18 18.85 50.23 19.41 51 20.14L52.27 18.87C51.19 17.84 49.76 17.05 47.74 17.05C44.1 17.05 41.04 20.01 41.04 23.66C41.04 27.3 44.1 30.2701 47.74 30.2701C49.71 30.2701 51.19 29.6301 52.35 28.4201C53.54 27.23 53.91 25.55 53.91 24.2C53.91 23.78 53.88 23.39 53.81 23.07H47.74V23.06ZM93.05 24.46C92.7 23.51 91.62 21.75 89.41 21.75C87.22 21.75 85.4 23.47 85.4 26C85.4 28.3801 87.2 30.2501 89.62 30.2501C91.57 30.2501 92.7 29.0601 93.16 28.3701L91.71 27.4001C91.23 28.1101 90.57 28.5801 89.62 28.5801C88.67 28.5801 87.99 28.1401 87.56 27.29L93.25 24.94L93.05 24.46ZM87.25 25.88C87.2 24.24 88.52 23.4 89.47 23.4C90.21 23.4 90.84 23.77 91.05 24.3L87.25 25.88ZM82.63 30.0001H84.5V17.5H82.63V30.0001ZM79.57 22.7H79.5C79.08 22.2 78.28 21.75 77.26 21.75C75.13 21.75 73.18 23.62 73.18 26.02C73.18 28.4001 75.13 30.2601 77.26 30.2601C78.27 30.2601 79.08 29.8101 79.5 29.2901H79.56V29.9001C79.56 31.5301 78.69 32.4001 77.29 32.4001C76.15 32.4001 75.44 31.5801 75.15 30.8901L73.52 31.5701C73.99 32.7001 75.23 34.0801 77.29 34.0801C79.48 34.0801 81.33 32.7901 81.33 29.6501V22.01H79.56V22.7H79.57ZM77.42 28.5801C76.13 28.5801 75.05 27.5001 75.05 26.02C75.05 24.52 76.13 23.43 77.42 23.43C78.69 23.43 79.69 24.53 79.69 26.02C79.7 27.5001 78.7 28.5801 77.42 28.5801ZM101.81 17.5H97.34V30.0001H99.21V25.26H101.82C103.89 25.26 105.92 23.76 105.92 21.38C105.92 19 103.87 17.5 101.81 17.5ZM101.85 23.52H99.2V19.23H101.85C103.25 19.23 104.04 20.39 104.04 21.37C104.04 22.35 103.25 23.52 101.85 23.52ZM113.39 21.73C112.04 21.73 110.64 22.33 110.06 23.64L111.72 24.33C112.07 23.64 112.73 23.41 113.42 23.41C114.38 23.41 115.37 23.99 115.38 25.02V25.15C115.04 24.96 114.32 24.67 113.43 24.67C111.64 24.67 109.83 25.65 109.83 27.48C109.83 29.1501 111.29 30.2301 112.93 30.2301C114.18 30.2301 114.88 29.6701 115.31 29.0101H115.37V29.9801H117.17V25.19C117.18 22.97 115.52 21.73 113.39 21.73ZM113.16 28.5801C112.55 28.5801 111.7 28.2701 111.7 27.5201C111.7 26.56 112.76 26.19 113.68 26.19C114.5 26.19 114.89 26.37 115.38 26.61C115.24 27.7601 114.24 28.5801 113.16 28.5801ZM123.74 22L121.6 27.42H121.54L119.32 22H117.31L120.64 29.5801L118.74 33.7901H120.69L125.82 22H123.74ZM106.94 30.0001H108.81V17.5H106.94V30.0001Z" fill="white"/>
            <path d="M10.44 7.54C10.15 7.85 9.97998 8.33 9.97998 8.94V31.0599C9.97998 31.6799 10.15 32.1599 10.44 32.4599L10.51 32.5299L22.9 20.15V20V19.85L10.51 7.47L10.44 7.54Z" fill="url(#paint0_linear_0_3)"/>
            <path d="M27.03 24.28L22.9 20.15V20V19.85L27.03 15.72L27.12 15.77L32.01 18.55C33.41 19.34 33.41 20.64 32.01 21.44L27.12 24.22L27.03 24.28Z" fill="url(#paint1_linear_0_3)"/>
            <path d="M27.12 24.22L22.9 20L10.44 32.46C10.9 32.95 11.66 33.01 12.52 32.52L27.12 24.22Z" fill="url(#paint2_linear_0_3)"/>
            <path d="M27.12 15.78L12.51 7.48C11.65 6.99 10.89 7.05 10.43 7.54L22.9 20L27.12 15.78Z" fill="url(#paint3_linear_0_3)"/>
            <path opacity="0.2" d="M27.03 24.13L12.51 32.38C11.7 32.84 10.97 32.81 10.51 32.39L10.44 32.46L10.51 32.53C10.98 32.95 11.7 32.98 12.51 32.52L27.12 24.22L27.03 24.13Z" fill="black"/>
            <path opacity="0.12" d="M10.44 32.3202C10.15 32.0102 9.97998 31.5302 9.97998 30.9202V31.0702C9.97998 31.6902 10.15 32.1702 10.44 32.4702L10.51 32.4002L10.44 32.3202Z" fill="black"/>
            <path opacity="0.12" d="M32.01 21.3L27.02 24.1301L27.11 24.2201L32 21.44C32.7 21.04 33.05 20.52 33.05 20C33 20.47 32.65 20.94 32.01 21.3Z" fill="black"/>
            <path opacity="0.25" d="M12.51 7.61991L32.01 18.6999C32.64 19.0599 33 19.5199 33.06 19.9999C33.06 19.4799 32.71 18.9499 32.01 18.5599L12.51 7.47991C11.11 6.68991 9.96997 7.34991 9.96997 8.94991V9.09991C9.96997 7.48991 11.12 6.82991 12.51 7.61991Z" fill="white"/>
            <defs>
                <linearGradient id="paint0_linear_0_3" x1="21.7997" y1="8.7097" x2="5.01737" y2="25.4922" gradientUnits="userSpaceOnUse">
                    <stop stop-color="#00A0FF"/>
                    <stop offset="0.00657445" stop-color="#00A1FF"/>
                    <stop offset="0.2601" stop-color="#00BEFF"/>
                    <stop offset="0.5122" stop-color="#00D2FF"/>
                    <stop offset="0.7604" stop-color="#00DFFF"/>
                    <stop offset="1" stop-color="#00E3FF"/>
                </linearGradient>
                <linearGradient id="paint1_linear_0_3" x1="33.8344" y1="20.0014" x2="9.63756" y2="20.0014" gradientUnits="userSpaceOnUse">
                    <stop stop-color="#FFE000"/>
                    <stop offset="0.4087" stop-color="#FFBD00"/>
                    <stop offset="0.7754" stop-color="#FFA500"/>
                    <stop offset="1" stop-color="#FF9C00"/>
                </linearGradient>
                <linearGradient id="paint2_linear_0_3" x1="24.827" y1="22.2961" x2="2.06875" y2="45.0544" gradientUnits="userSpaceOnUse">
                    <stop stop-color="#FF3A44"/>
                    <stop offset="1" stop-color="#C31162"/>
                </linearGradient>
                <linearGradient id="paint3_linear_0_3" x1="7.29727" y1="0.176218" x2="17.4598" y2="10.3387" gradientUnits="userSpaceOnUse">
                    <stop stop-color="#32A071"/>
                    <stop offset="0.0685" stop-color="#2DA771"/>
                    <stop offset="0.4762" stop-color="#15CF74"/>
                    <stop offset="0.8009" stop-color="#06E775"/>
                    <stop offset="1" stop-color="#00F076"/>
                </linearGradient>
            </defs>
    </symbol>
    <symbol id="appstore" viewBox="0 0 120 40">
        <path d="M110.135 0H9.535c-.367 0-.73 0-1.095.002-.306.002-.61.008-.919.013C6.85.023 6.18.082 5.517.192a6.665 6.665 0 0 0-1.9.627A6.438 6.438 0 0 0 .193 5.522a12.993 12.993 0 0 0-.179 2.002c-.01.306-.01.614-.015.92V31.56c.005.31.006.61.015.921.008.671.068 1.34.18 2.002.11.663.32 1.306.624 1.905.303.598.701 1.143 1.179 1.614.473.477 1.019.875 1.618 1.179a6.7 6.7 0 0 0 1.901.63c.663.11 1.333.168 2.004.177.31.007.613.011.919.011.366.002.728.002 1.095.002h100.6c.359 0 .724 0 1.084-.002.304 0 .617-.004.922-.01.67-.01 1.338-.068 2-.178a6.805 6.805 0 0 0 1.908-.63A6.293 6.293 0 0 0 117.666 38a6.405 6.405 0 0 0 1.182-1.614c.302-.6.51-1.242.619-1.905.111-.661.173-1.33.185-2.002.004-.31.004-.61.004-.921.008-.364.008-.725.008-1.094V9.536c0-.366 0-.73-.008-1.092 0-.306 0-.614-.004-.92a13.57 13.57 0 0 0-.185-2.002 6.648 6.648 0 0 0-.619-1.904 6.469 6.469 0 0 0-2.799-2.8 6.77 6.77 0 0 0-1.908-.627c-.661-.11-1.33-.169-2-.176-.305-.005-.618-.011-.922-.013-.36-.002-.725-.002-1.084-.002Z" fill="#A6A6A6"/>
        <path d="M8.445 39.125c-.305 0-.602-.004-.904-.01a12.669 12.669 0 0 1-1.87-.164 5.88 5.88 0 0 1-1.656-.548 5.403 5.403 0 0 1-1.397-1.016 5.32 5.32 0 0 1-1.02-1.397 5.722 5.722 0 0 1-.544-1.657 12.41 12.41 0 0 1-.166-1.875c-.007-.21-.015-.913-.015-.913v-23.1s.009-.692.015-.895a12.37 12.37 0 0 1 .165-1.872 5.755 5.755 0 0 1 .544-1.662c.26-.518.603-.99 1.015-1.398A5.565 5.565 0 0 1 5.667 1.05C6.287.95 6.915.895 7.543.887l.902-.012h102.769l.913.013a12.37 12.37 0 0 1 1.858.162 5.933 5.933 0 0 1 1.671.548 5.589 5.589 0 0 1 2.415 2.42 5.74 5.74 0 0 1 .535 1.65c.104.623.162 1.254.174 1.886.003.284.003.588.003.89.008.375.008.732.008 1.092v20.929c0 .363 0 .718-.008 1.075 0 .325 0 .623-.004.93-.011.62-.069 1.24-.171 1.853a5.715 5.715 0 0 1-.54 1.67c-.263.513-.606.98-1.015 1.386-.409.414-.881.759-1.4 1.022a5.852 5.852 0 0 1-1.668.55c-.618.101-1.243.156-1.869.163-.293.007-.599.011-.897.011l-1.084.002-101.69-.002Z" fill="#000"/>
        <path d="M24.769 20.3a4.948 4.948 0 0 1 2.356-4.151 5.065 5.065 0 0 0-3.99-2.158c-1.68-.176-3.308 1.005-4.164 1.005-.872 0-2.19-.988-3.608-.958a5.315 5.315 0 0 0-4.473 2.727c-1.934 3.349-.492 8.27 1.361 10.977.927 1.325 2.01 2.805 3.428 2.753 1.387-.058 1.905-.885 3.58-.885 1.658 0 2.144.885 3.59.852 1.489-.025 2.426-1.332 3.32-2.67a10.96 10.96 0 0 0 1.52-3.092 4.782 4.782 0 0 1-2.92-4.4ZM22.037 12.211a4.872 4.872 0 0 0 1.115-3.49 4.957 4.957 0 0 0-3.208 1.66 4.634 4.634 0 0 0-1.143 3.36 4.099 4.099 0 0 0 3.236-1.53ZM42.302 27.14H37.57l-1.137 3.356h-2.005l4.484-12.418h2.083l4.483 12.418h-2.039l-1.136-3.356Zm-4.243-1.55h3.752l-1.85-5.446h-.051l-1.85 5.447ZM55.16 25.97c0 2.813-1.506 4.62-3.779 4.62a3.07 3.07 0 0 1-2.848-1.583h-.043v4.484H46.63V21.442h1.8v1.506h.033a3.212 3.212 0 0 1 2.883-1.6c2.298 0 3.813 1.816 3.813 4.622Zm-1.91 0c0-1.833-.948-3.038-2.393-3.038-1.42 0-2.375 1.23-2.375 3.038 0 1.824.955 3.046 2.375 3.046 1.445 0 2.392-1.197 2.392-3.046ZM65.124 25.97c0 2.813-1.505 4.62-3.778 4.62a3.07 3.07 0 0 1-2.848-1.583h-.043v4.484h-1.859V21.442h1.799v1.506h.034a3.212 3.212 0 0 1 2.883-1.6c2.298 0 3.813 1.816 3.813 4.622Zm-1.91 0c0-1.833-.947-3.038-2.392-3.038-1.42 0-2.375 1.23-2.375 3.038 0 1.824.955 3.046 2.375 3.046 1.445 0 2.392-1.197 2.392-3.046ZM71.71 27.036c.138 1.232 1.334 2.04 2.97 2.04 1.566 0 2.693-.808 2.693-1.919 0-.964-.68-1.54-2.29-1.936l-1.609-.388c-2.28-.55-3.339-1.617-3.339-3.348 0-2.142 1.867-3.614 4.519-3.614 2.624 0 4.423 1.472 4.483 3.614h-1.876c-.112-1.239-1.136-1.987-2.634-1.987-1.497 0-2.521.757-2.521 1.858 0 .878.654 1.395 2.255 1.79l1.368.336c2.548.603 3.606 1.626 3.606 3.443 0 2.323-1.85 3.778-4.793 3.778-2.754 0-4.614-1.42-4.734-3.667h1.902ZM83.346 19.3v2.142h1.722v1.472h-1.722v4.991c0 .776.345 1.137 1.102 1.137.204-.004.408-.018.611-.043v1.463c-.34.064-.686.092-1.032.086-1.833 0-2.548-.689-2.548-2.444v-5.19h-1.316v-1.472h1.316V19.3h1.867ZM86.065 25.97c0-2.849 1.678-4.639 4.294-4.639 2.625 0 4.295 1.79 4.295 4.639 0 2.856-1.661 4.639-4.295 4.639-2.633 0-4.294-1.783-4.294-4.64Zm6.695 0c0-1.954-.895-3.108-2.401-3.108-1.506 0-2.4 1.163-2.4 3.108 0 1.962.894 3.106 2.4 3.106 1.506 0 2.401-1.144 2.401-3.106ZM96.186 21.442h1.772v1.541h.043a2.16 2.16 0 0 1 2.178-1.635c.214-.001.428.022.637.07v1.737a2.594 2.594 0 0 0-.835-.112 1.872 1.872 0 0 0-1.937 2.083v5.37h-1.858v-9.053ZM109.384 27.837c-.25 1.643-1.85 2.771-3.898 2.771-2.634 0-4.269-1.764-4.269-4.595 0-2.84 1.644-4.682 4.191-4.682 2.505 0 4.08 1.72 4.08 4.466v.637h-6.395v.112a2.353 2.353 0 0 0 .639 1.832 2.363 2.363 0 0 0 1.797.732 2.046 2.046 0 0 0 2.091-1.273h1.764Zm-6.282-2.702h4.526a2.166 2.166 0 0 0-.608-1.634 2.168 2.168 0 0 0-1.612-.664 2.293 2.293 0 0 0-2.306 2.298ZM37.826 8.731a2.64 2.64 0 0 1 2.808 2.965c0 1.906-1.03 3.002-2.808 3.002h-2.155V8.73h2.155Zm-1.228 5.123h1.125a1.876 1.876 0 0 0 1.968-2.146 1.882 1.882 0 0 0-1.968-2.134h-1.125v4.28ZM41.68 12.444a2.133 2.133 0 1 1 4.248 0 2.134 2.134 0 1 1-4.247 0Zm3.334 0c0-.976-.439-1.546-1.208-1.546-.773 0-1.207.57-1.207 1.546 0 .984.434 1.55 1.207 1.55.77 0 1.208-.57 1.208-1.55ZM51.573 14.698h-.922l-.93-3.316h-.07l-.927 3.316h-.913l-1.242-4.503h.902l.806 3.436h.067l.925-3.436h.853l.926 3.436h.07l.803-3.436h.889l-1.237 4.503ZM53.853 10.195h.856v.715h.066a1.349 1.349 0 0 1 1.344-.802 1.466 1.466 0 0 1 1.559 1.675v2.915h-.889v-2.692c0-.724-.314-1.084-.972-1.084a1.034 1.034 0 0 0-1.075 1.142v2.634h-.889v-4.503ZM59.094 8.437h.888v6.26h-.888v-6.26ZM61.218 12.444a2.134 2.134 0 1 1 4.247 0 2.133 2.133 0 1 1-4.247 0Zm3.333 0c0-.976-.439-1.546-1.208-1.546-.773 0-1.207.57-1.207 1.546 0 .984.434 1.55 1.207 1.55.77 0 1.208-.57 1.208-1.55ZM66.4 13.424c0-.81.604-1.277 1.676-1.344l1.22-.07v-.389c0-.476-.315-.744-.922-.744-.497 0-.84.182-.939.5h-.86c.09-.773.818-1.27 1.84-1.27 1.128 0 1.765.563 1.765 1.514v3.077h-.855v-.633h-.07a1.515 1.515 0 0 1-1.353.707 1.361 1.361 0 0 1-1.501-1.348Zm2.895-.384v-.377l-1.1.07c-.62.042-.9.253-.9.65 0 .405.351.641.834.641a1.064 1.064 0 0 0 1.166-.984ZM71.348 12.444c0-1.422.732-2.324 1.87-2.324a1.483 1.483 0 0 1 1.38.79h.067V8.437h.888v6.26h-.851v-.71h-.07a1.563 1.563 0 0 1-1.415.785c-1.145 0-1.869-.901-1.869-2.328Zm.918 0c0 .956.45 1.53 1.203 1.53.75 0 1.212-.583 1.212-1.526 0-.938-.468-1.53-1.212-1.53-.748 0-1.203.58-1.203 1.527ZM79.23 12.444a2.134 2.134 0 1 1 4.247 0 2.134 2.134 0 1 1-4.247 0Zm3.333 0c0-.976-.439-1.546-1.208-1.546-.772 0-1.207.57-1.207 1.546 0 .984.435 1.55 1.207 1.55.77 0 1.208-.57 1.208-1.55ZM84.67 10.195h.855v.715h.066a1.348 1.348 0 0 1 1.344-.802 1.466 1.466 0 0 1 1.559 1.675v2.915h-.889v-2.692c0-.724-.314-1.084-.972-1.084a1.034 1.034 0 0 0-1.075 1.142v2.634h-.889v-4.503ZM93.515 9.074v1.142h.976v.748h-.976v2.315c0 .472.195.679.637.679.113 0 .226-.008.339-.02v.74c-.16.028-.322.043-.484.045-.988 0-1.382-.348-1.382-1.216v-2.543h-.714v-.749h.715V9.074h.89ZM95.705 8.437h.88v2.482h.07a1.386 1.386 0 0 1 1.374-.807 1.485 1.485 0 0 1 1.55 1.679v2.907h-.889V12.01c0-.72-.335-1.084-.963-1.084a1.053 1.053 0 0 0-1.134 1.142v2.63h-.888v-6.26ZM104.761 13.482a1.823 1.823 0 0 1-1.951 1.303 2.047 2.047 0 0 1-2.08-2.324 2.083 2.083 0 0 1 1.212-2.172 2.08 2.08 0 0 1 .864-.181c1.253 0 2.009.856 2.009 2.27v.31h-3.18v.05a1.191 1.191 0 0 0 1.199 1.29 1.08 1.08 0 0 0 1.072-.546h.855Zm-3.126-1.451h2.275a1.09 1.09 0 0 0-1.109-1.167 1.151 1.151 0 0 0-1.166 1.167Z" fill="#fff"/>
    </symbol>
</svg>